<svg width="72" height="72" viewBox="0 0 72 72" fill="none" xmlns="http://www.w3.org/2000/svg">
<path d="M36 3.9375C27.4995 3.94715 19.3498 7.32826 13.3391 13.3391C7.32826 19.3498 3.94715 27.4995 3.9375 36C5.69888 78.5352 66.3076 78.5229 68.0626 35.9997C68.0528 27.4992 64.6717 19.3497 58.6609 13.3389C52.6501 7.32821 44.5005 3.94715 36 3.9375ZM36 64.6875C28.3943 64.6788 21.1025 61.6536 15.7245 56.2755C10.3464 50.8975 7.32117 43.6057 7.3125 36C8.88863 -2.0578 63.1171 -2.04676 64.6876 36.0002C64.6788 43.6059 61.6536 50.8976 56.2755 56.2756C50.8974 61.6536 43.6057 64.6788 36 64.6875Z" fill="#DF1525"/>
<path d="M47.3179 24.6819C47.1613 24.5251 46.9753 24.4008 46.7706 24.316C46.5658 24.2312 46.3464 24.1875 46.1248 24.1875C45.9032 24.1875 45.6838 24.2312 45.4791 24.316C45.2744 24.4008 45.0884 24.5251 44.9317 24.6819L35.9998 33.6138L27.0679 24.6819C26.7499 24.3733 26.3232 24.2022 25.8801 24.2055C25.4369 24.2089 25.0129 24.3864 24.6996 24.6998C24.3862 25.0132 24.2087 25.4372 24.2054 25.8804C24.2021 26.3235 24.3732 26.7502 24.6818 27.0682L33.6136 36L24.6817 44.9319C24.3653 45.2483 24.1875 45.6775 24.1875 46.125C24.1875 46.5725 24.3653 47.0017 24.6817 47.3181C24.9981 47.6346 25.4273 47.8123 25.8748 47.8123C26.3223 47.8123 26.7515 47.6346 27.0679 47.3181L35.9998 38.3862L44.9317 47.3181C45.0882 47.4751 45.2742 47.5995 45.4789 47.6844C45.6837 47.7692 45.9032 47.8128 46.1248 47.8125C46.4561 47.8071 46.7787 47.705 47.0527 47.5187C47.3267 47.3324 47.5403 47.07 47.6671 46.7638C47.7938 46.4577 47.8283 46.1211 47.7663 45.7956C47.7043 45.4701 47.5484 45.1699 47.3179 44.9318L38.3861 36L47.3179 27.0681C47.4747 26.9115 47.599 26.7255 47.6838 26.5207C47.7687 26.316 47.8123 26.0966 47.8123 25.875C47.8123 25.6534 47.7687 25.434 47.6838 25.2293C47.599 25.0245 47.4747 24.8385 47.3179 24.6819Z" fill="#DF1525"/>
</svg>
